<?xml version="1.0" encoding="UTF-8"?>
<svg version="1.1" xmlns="http://www.w3.org/2000/svg" width="500" height="500">
<path d="M0 0 C1.258125 0.09023437 2.51625 0.18046875 3.8125 0.2734375 C7 0.625 7 0.625 9 1.625 C9.10834375 6.06709357 8.70173653 10.23914671 8 14.625 C8.9590625 14.99625 8.9590625 14.99625 9.9375 15.375 C12 16.625 12 16.625 12.75 18.75 C12.87375 19.678125 12.87375 19.678125 13 20.625 C13.66 20.625 14.32 20.625 15 20.625 C14.79375 20.068125 14.5875 19.51125 14.375 18.9375 C13.87142412 15.83211542 14.43105087 14.33500304 16 11.625 C18.375 10.375 18.375 10.375 21 9.625 C21.70125 9.3775 22.4025 9.13 23.125 8.875 C25 8.625 25 8.625 28 10.625 C30.1332693 10.42383751 30.1332693 10.42383751 32.375 9.875 C34.77734375 9.5234375 34.77734375 9.5234375 37 9.625 C39.3105335 11.36482619 40.37464269 13.16233741 42 15.625 C42.66 15.955 43.32 16.285 44 16.625 C44 14.645 44 12.665 44 10.625 C44.66 10.625 45.32 10.625 46 10.625 C47.32229189 13.26958379 47.09677194 15.30261301 47.0625 18.25 C47.05347656 19.25289062 47.04445313 20.25578125 47.03515625 21.2890625 C47.02355469 22.05992187 47.01195312 22.83078125 47 23.625 C45.68 23.955 44.36 24.285 43 24.625 C43.33 22.645 43.66 20.665 44 18.625 C43.34 18.625 42.68 18.625 42 18.625 C41.71125 19.24375 41.4225 19.8625 41.125 20.5 C40 22.625 40 22.625 38 24.625 C37.505 23.635 37.505 23.635 37 22.625 C36.34 23.615 35.68 24.605 35 25.625 C34.38125 25.295 33.7625 24.965 33.125 24.625 C31.08981656 23.48306765 31.08981656 23.48306765 29 23.625 C27.27292838 24.64844985 25.54678439 25.67461695 23.8515625 26.75 C22 27.625 22 27.625 18 27.625 C18.061875 28.57375 18.12375 29.5225 18.1875 30.5 C18.0946875 32.046875 18.0946875 32.046875 18 33.625 C13.66936068 36.51209288 9.6043595 36.1631725 4.5 36.375 C3.53707031 36.43042969 2.57414062 36.48585938 1.58203125 36.54296875 C0.65777344 36.58550781 -0.26648438 36.62804687 -1.21875 36.671875 C-2.06373047 36.71151367 -2.90871094 36.75115234 -3.77929688 36.79199219 C-6 36.625 -6 36.625 -9 34.625 C-9.51171875 32.2421875 -9.51171875 32.2421875 -9.6875 29.5 C-9.75324219 28.58992188 -9.81898437 27.67984375 -9.88671875 26.7421875 C-9.92410156 26.04351562 -9.96148437 25.34484375 -10 24.625 C-10.99 24.295 -11.98 23.965 -13 23.625 C-15.31978427 21.03754831 -16.30722035 18.98992975 -17 15.625 C-17.65509503 13.62117991 -18.31974363 11.62041868 -19 9.625 C-17.68 9.625 -16.36 9.625 -15 9.625 C-13.68 12.925 -12.36 16.225 -11 19.625 C-8.92072047 16.79717984 -7.91715431 15.37061117 -8.3125 11.8125 C-8.539375 10.760625 -8.76625 9.70875 -9 8.625 C-9.09670989 5.95097157 -9.04615442 3.30195633 -9 0.625 C-5.97682058 -0.88658971 -3.33987848 -0.25322849 0 0 Z M33 10.625 C34 12.625 34 12.625 34 12.625 Z M37 11.625 C36.67 13.275 36.34 14.925 36 16.625 C36.66 16.625 37.32 16.625 38 16.625 C38 14.975 38 13.325 38 11.625 C37.67 11.625 37.34 11.625 37 11.625 Z M18 13.625 C19 15.625 19 15.625 19 15.625 Z M-5 14.625 C-5.33 15.285 -5.66 15.945 -6 16.625 C-5.34 16.625 -4.68 16.625 -4 16.625 C-4.33 15.965 -4.66 15.305 -5 14.625 Z M20 15.625 C21.98 16.615 21.98 16.615 24 17.625 C23.67 16.965 23.34 16.305 23 15.625 C22.01 15.625 21.02 15.625 20 15.625 Z M1 17.625 C2 20.625 2 20.625 2 20.625 Z M36 18.625 C36 19.285 36 19.945 36 20.625 C36.66 20.625 37.32 20.625 38 20.625 C38 19.965 38 19.305 38 18.625 C37.34 18.625 36.68 18.625 36 18.625 Z " fill="#7A8877" transform="translate(112,228.375)"/>
<path d="M0 0 C14.19 0.33 28.38 0.66 43 1 C42.67 1.66 42.34 2.32 42 3 C39.49730442 3.60549087 36.99096441 3.95762488 34.4453125 4.33984375 C31.72477024 5.07430324 30.70997942 5.7975898 29 8 C25.606674 17.69521715 32.76947358 29.89188482 36.30639648 38.82641602 C36.65259033 39.70869873 36.99878418 40.59098145 37.35546875 41.5 C37.67153076 42.2940625 37.98759277 43.088125 38.31323242 43.90625 C39 46 39 46 39 49 C33.06 49.495 33.06 49.495 27 50 C26.67128906 48.94425781 26.34257812 47.88851562 26.00390625 46.80078125 C23.18822297 37.95640158 20.04264274 29.30494709 16.4375 20.75 C16.07406494 19.86997314 15.71062988 18.98994629 15.33618164 18.08325195 C11.7675386 9.71330599 11.7675386 9.71330599 4.98046875 3.9765625 C4.38878906 3.86054688 3.79710938 3.74453125 3.1875 3.625 C2.135625 3.41875 1.08375 3.2125 0 3 C0 2.01 0 1.02 0 0 Z " fill="#FCFCFD" transform="translate(117,181)"/>
<path d="M0 0 C11.55 0 23.1 0 35 0 C34 2 34 2 30.5625 3.375 C27.06571535 4.64078345 27.06571535 4.64078345 25.625 6.75 C24.08476087 12.29486087 23.84450977 17.9595812 23.68359375 23.68359375 C23.66281265 24.38396255 23.64203156 25.08433136 23.62062073 25.80592346 C23.55587535 28.01636106 23.49659392 30.22690485 23.4375 32.4375 C23.39424319 33.94727607 23.35062677 35.45704188 23.30664062 36.96679688 C23.20027252 40.64442196 23.09879998 44.32216291 23 48 C19.04 48 15.08 48 11 48 C10.98541748 46.94611084 10.97083496 45.89222168 10.95581055 44.80639648 C10.89755055 40.87181787 10.82032096 36.93779507 10.73754883 33.00366211 C10.70442917 31.30551214 10.67635739 29.60725552 10.65356445 27.90893555 C10.61977831 25.45836213 10.56745361 23.00875469 10.51171875 20.55859375 C10.50532883 19.80726669 10.4989389 19.05593964 10.49235535 18.28184509 C10.35221758 13.18287654 9.35760818 9.54348934 7 5 C5.27213736 3.58231629 5.27213736 3.58231629 3.3125 3.0625 C2.219375 2.711875 1.12625 2.36125 0 2 C0 1.34 0 0.68 0 0 Z " fill="#FCFCFD" transform="translate(343,182)"/>
<path d="M0 0 C11.22 0 22.44 0 34 0 C34 0.66 34 1.32 34 2 C32.88625 2.391875 31.7725 2.78375 30.625 3.1875 C27.93434297 4.34838831 27.16779689 4.71779614 25.625 7.3125 C24.35822565 12.75962972 23.84013682 17.99511344 23.68359375 23.5859375 C23.66281265 24.28772125 23.64203156 24.989505 23.62062073 25.71255493 C23.55573676 27.93327958 23.4965277 30.15411276 23.4375 32.375 C23.39425646 33.88933371 23.3506404 35.40365683 23.30664062 36.91796875 C23.20011914 40.61186655 23.09868323 44.30588354 23 48 C19.04 48 15.08 48 11 48 C11.01160156 46.90945312 11.02320313 45.81890625 11.03515625 44.6953125 C11.09611163 36.56277287 11.04150413 28.43838753 10.6875 20.3125 C10.66502197 19.58369629 10.64254395 18.85489258 10.61938477 18.10400391 C10.36592969 13.12341054 9.39641134 9.40451528 7 5 C5.27213736 3.58231629 5.27213736 3.58231629 3.3125 3.0625 C2.219375 2.711875 1.12625 2.36125 0 2 C0 1.34 0 0.68 0 0 Z " fill="#FCFDFD" transform="translate(271,182)"/>
<path d="M0 0 C3.63 0 7.26 0 11 0 C11.8566565 5.88951344 12.01767726 11.56558976 11.9375 17.5 C11.66632794 28.06903719 11.66632794 28.06903719 15.875 37.5 C17.98127159 38.98677994 19.46422538 39.63774648 22 40 C22 40.66 22 41.32 22 42 C10.45 42 -1.1 42 -13 42 C-12.67 41.34 -12.34 40.68 -12 40 C-10.88625 39.79375 -9.7725 39.5875 -8.625 39.375 C-4.74030227 38.35789189 -4.74030227 38.35789189 -3.3125 34.8125 C-1.228953 28.61189748 -1.46777659 22.09948063 -1.375 15.625 C-1.32417133 13.09627366 -1.26967901 10.56761741 -1.2109375 8.0390625 C-1.18459229 6.37157959 -1.18459229 6.37157959 -1.15771484 4.67041016 C-1 2 -1 2 0 0 Z " fill="#FCFCFD" transform="translate(355,263)"/>
<path d="M0 0 C0.01981934 0.77077881 0.03963867 1.54155762 0.06005859 2.33569336 C0.15604454 5.86993849 0.26542329 9.40365117 0.375 12.9375 C0.4059375 14.14986328 0.436875 15.36222656 0.46875 16.61132812 C0.51038302 28.16673337 0.51038302 28.16673337 4.875 38.5 C6.98127159 39.98677994 8.46422538 40.63774648 11 41 C11 41.66 11 42.32 11 43 C-0.22 43.33 -11.44 43.66 -23 44 C-23.495 42.515 -23.495 42.515 -24 41 C-22.01432292 40.73958333 -20.02864583 40.47916667 -18.04296875 40.21875 C-15.30286926 38.58412086 -14.53862951 36.59771426 -13.56079102 33.62988281 C-12.36828396 28.03750754 -12.45663318 22.32182979 -12.375 16.625 C-12.32417133 14.09627366 -12.26967901 11.56761741 -12.2109375 9.0390625 C-12.18459229 7.37157959 -12.18459229 7.37157959 -12.15771484 5.67041016 C-12 3 -12 3 -11 1 C-8.75 0.5859375 -8.75 0.5859375 -6 0.375 C-5.0925 0.30023438 -4.185 0.22546875 -3.25 0.1484375 C-1 0 -1 0 0 0 Z " fill="#FCFCFD" transform="translate(294,262)"/>
<path d="M0 0 C3.96 0.33 7.92 0.66 12 1 C15.76272973 9.96415023 19.40395012 18.96806077 23 28 C26.3 19.09 29.6 10.18 33 1 C33.99 1 34.98 1 36 1 C33.31196032 10.81284374 29.53316627 20.16989044 25.8125 29.625 C25.15133203 31.31366091 24.49052172 33.0024619 23.83007812 34.69140625 C22.22417272 38.79589814 20.61343303 42.89846163 19 47 C17.515 46.505 17.515 46.505 16 46 C15.26611328 44.29052734 15.26611328 44.29052734 14.6953125 41.9609375 C13.41193373 37.26079284 11.8444043 32.7165595 10.1171875 28.1640625 C9.85576965 27.47221863 9.59435181 26.78037476 9.32501221 26.06756592 C8.51104499 23.91900578 7.69342857 21.77186431 6.875 19.625 C6.04790036 17.45139179 5.22184321 15.27740841 4.39846802 13.10238647 C3.88989162 11.75926087 3.37915832 10.41694936 2.86593628 9.07559204 C1.72067005 6.05412481 0.78598433 3.14393733 0 0 Z " fill="#FBFCFD" transform="translate(157,262)"/>
<path d="M0 0 C2.46786921 0.40019501 4.84160342 0.95600095 7.25 1.625 C7.8275 1.74875 8.405 1.8725 9 2 C9.33 1.67 9.66 1.34 10 1 C12.25 0.5625 12.25 0.5625 15 1 C17.6875 3.9375 17.6875 3.9375 20 7 C20.66 7.33 21.32 7.66 22 8 C22 6.02 22 4.04 22 2 C22.66 2 23.32 2 24 2 C25.32229189 4.64458379 25.09677194 6.67761301 25.0625 9.625 C25.05347656 10.62789062 25.04445312 11.63078125 25.03515625 12.6640625 C25.02355469 13.43492187 25.01195312 14.20578125 25 15 C23.68 15.33 22.36 15.66 21 16 C21.33 14.02 21.66 12.04 22 10 C21.34 10 20.68 10 20 10 C19.566875 10.928125 19.566875 10.928125 19.125 11.875 C18 14 18 14 16 16 C15.505 15.01 15.505 15.01 15 14 C14.34 14.99 13.68 15.98 13 17 C12.38125 16.67 11.7625 16.34 11.125 16 C9.08981656 14.85806765 9.08981656 14.85806765 7 15 C5.9275 15.680625 4.855 16.36125 3.75 17.0625 C1.2051698 18.53087225 0.20110472 19 -2.8125 19 C-7.31597931 17.58714375 -11.65772583 15.84503744 -16 14 C-16 14.66 -16 15.32 -16 16 C-16.66 16 -17.32 16 -18 16 C-18 14.68 -18 13.36 -18 12 C-18.66 12 -19.32 12 -20 12 C-20.33 11.34 -20.66 10.68 -21 10 C-21.99 9.67 -22.98 9.34 -24 9 C-23.34 8.01 -22.68 7.02 -22 6 C-21.34 6 -20.68 6 -20 6 C-19.67 4.68 -19.34 3.36 -19 2 C-17.68 2 -16.36 2 -15 2 C-14.7525 2.5775 -14.505 3.155 -14.25 3.75 C-13.06009525 6.13449889 -13.06009525 6.13449889 -10.875 8.125 C-9 10 -9 10 -9 12 C-8.34 12 -7.68 12 -7 12 C-7.20625 11.443125 -7.4125 10.88625 -7.625 10.3125 C-8.12857588 7.20711542 -7.56894913 5.71000304 -6 3 C-3.4375 1.75 -3.4375 1.75 -1 1 C-0.67 0.67 -0.34 0.34 0 0 Z M11 2 C12 4 12 4 12 4 Z M15 3 C14.67 4.65 14.34 6.3 14 8 C14.66 8 15.32 8 16 8 C16 6.35 16 4.7 16 3 C15.67 3 15.34 3 15 3 Z M-4 5 C-3 7 -3 7 -3 7 Z M-2 7 C-0.02 7.99 -0.02 7.99 2 9 C1.67 8.34 1.34 7.68 1 7 C0.01 7 -0.98 7 -2 7 Z M14 10 C14 10.66 14 11.32 14 12 C14.66 12 15.32 12 16 12 C16 11.34 16 10.68 16 10 C15.34 10 14.68 10 14 10 Z " fill="#F1F7F8" transform="translate(134,237)"/>
<path d="M0 0 C0.495 0.99 0.495 0.99 1 2 C-0.794375 2.433125 -0.794375 2.433125 -2.625 2.875 C-8.88596365 5.28169473 -11.17644124 10.91309693 -13.79998779 16.79290771 C-15.49025028 20.78789841 -17.05067707 24.8300913 -18.57958984 28.88916016 C-19.38545262 31.02773889 -20.20524858 33.16058336 -21.02734375 35.29296875 C-23.79027931 41.48971365 -23.79027931 41.48971365 -25 48 C-26.32 48 -27.64 48 -29 48 C-27.93608718 42.62018452 -26.56545425 37.51787904 -24.68945312 32.36572266 C-20.21142725 20.28307742 -20.21142725 20.28307742 -21.859375 7.8203125 C-23.65993734 4.94681232 -25.89042115 4.19599186 -29 3 C-32.25100364 2.74803177 -32.25100364 2.74803177 -35 3 C-35 2.01 -35 1.02 -35 0 C-30.65860566 -0.16800236 -26.31701785 -0.32851981 -21.97509766 -0.48217773 C-20.49878539 -0.53547011 -19.02254481 -0.59078903 -17.54638672 -0.64819336 C-15.42170666 -0.73046212 -13.29687349 -0.80538335 -11.171875 -0.87890625 C-9.2552002 -0.94960327 -9.2552002 -0.94960327 -7.29980469 -1.02172852 C-4.58941698 -1.00388119 -2.50914801 -0.98324297 0 0 Z " fill="#FBFCFD" transform="translate(232,182)"/>
<path d="M0 0 C2.97 0.99 5.94 1.98 9 3 C9 3.66 9 4.32 9 5 C9.66 5 10.32 5 11 5 C11 4.34 11 3.68 11 3 C15.38889325 3.66498383 18.9811485 5.18757677 23 7 C23.1875 10.375 23.1875 10.375 23 14 C18.66936068 16.88709288 14.6043595 16.5381725 9.5 16.75 C8.53707031 16.80542969 7.57414062 16.86085938 6.58203125 16.91796875 C5.65777344 16.96050781 4.73351562 17.00304687 3.78125 17.046875 C2.5137793 17.10633301 2.5137793 17.10633301 1.22070312 17.16699219 C-1 17 -1 17 -4 15 C-4.56593248 9.34067518 -4.02162866 5.955471 -1 1 C-0.67 0.67 -0.34 0.34 0 0 Z " fill="#040609" transform="translate(107,248)"/>
<path d="M0 0 C0.67675781 0.02707031 1.35351562 0.05414063 2.05078125 0.08203125 C5.06572738 0.26637707 7.05420295 0.39973089 9.46875 2.296875 C9.97921875 3.01617187 9.97921875 3.01617187 10.5 3.75 C11.36625 2.7290625 11.36625 2.7290625 12.25 1.6875 C12.9925 1.048125 13.735 0.40875 14.5 -0.25 C16.640625 0.12890625 16.640625 0.12890625 18.5 0.75 C18.60957031 1.31589844 18.71914063 1.88179688 18.83203125 2.46484375 C18.99058594 3.19832031 19.14914062 3.93179687 19.3125 4.6875 C19.46332031 5.41839844 19.61414063 6.14929688 19.76953125 6.90234375 C20.01058594 7.51207031 20.25164062 8.12179687 20.5 8.75 C21.49 9.08 22.48 9.41 23.5 9.75 C23.83 6.78 24.16 3.81 24.5 0.75 C27.47 0.75 30.44 0.75 33.5 0.75 C33.5 1.08 33.5 1.41 33.5 1.75 C32.530625 1.87375 31.56125 1.9975 30.5625 2.125 C29.551875 2.33125 28.54125 2.5375 27.5 2.75 C27.17 3.41 26.84 4.07 26.5 4.75 C27.16 4.75 27.82 4.75 28.5 4.75 C28.5 4.09 28.5 3.43 28.5 2.75 C29.49 2.75 30.48 2.75 31.5 2.75 C32.16 4.4 32.82 6.05 33.5 7.75 C31.85 8.08 30.2 8.41 28.5 8.75 C28.5 8.09 28.5 7.43 28.5 6.75 C27.84 6.75 27.18 6.75 26.5 6.75 C26.5 7.74 26.5 8.73 26.5 9.75 C28.48 9.75 30.46 9.75 32.5 9.75 C32.995 10.74 32.995 10.74 33.5 11.75 C31.78103516 11.73259766 31.78103516 11.73259766 30.02734375 11.71484375 C28.49739748 11.70545758 26.96744942 11.69635827 25.4375 11.6875 C24.68533203 11.67912109 23.93316406 11.67074219 23.15820312 11.66210938 C19.50215959 11.64628235 16.19649154 11.79852519 12.56640625 12.37890625 C11.55449219 12.50136719 10.54257812 12.62382812 9.5 12.75 C8.84 12.09 8.18 11.43 7.5 10.75 C7.5 9.43 7.5 8.11 7.5 6.75 C6.88655243 5.06301918 6.22904086 3.39034193 5.5 1.75 C4.51 1.75 3.52 1.75 2.5 1.75 C2.850625 2.471875 3.20125 3.19375 3.5625 3.9375 C4.60409017 7.0622705 4.39096572 8.63161996 3.5 11.75 C2.18 11.42 0.86 11.09 -0.5 10.75 C-0.5 8.11 -0.5 5.47 -0.5 2.75 C-2.15 2.75 -3.8 2.75 -5.5 2.75 C-5.5 3.74 -5.5 4.73 -5.5 5.75 C-4.18 6.08 -2.86 6.41 -1.5 6.75 C-1.83 8.4 -2.16 10.05 -2.5 11.75 C-5.47 11.42 -8.44 11.09 -11.5 10.75 C-11.5 10.09 -11.5 9.43 -11.5 8.75 C-10.51 8.75 -9.52 8.75 -8.5 8.75 C-8.83 7.76 -9.16 6.77 -9.5 5.75 C-10.16 5.75 -10.82 5.75 -11.5 5.75 C-11.17 4.1 -10.84 2.45 -10.5 0.75 C-6.88022137 -0.45659288 -3.74163728 -0.23518863 0 0 Z M-8.5 1.75 C-8.83 2.41 -9.16 3.07 -9.5 3.75 C-8.51 3.42 -7.52 3.09 -6.5 2.75 C-7.16 2.42 -7.82 2.09 -8.5 1.75 Z M11.5 5.75 C11.17 6.74 10.84 7.73 10.5 8.75 C11.16 9.41 11.82 10.07 12.5 10.75 C12.5 9.1 12.5 7.45 12.5 5.75 C12.17 5.75 11.84 5.75 11.5 5.75 Z M14.5 5.75 C14.5 7.4 14.5 9.05 14.5 10.75 C14.83 10.75 15.16 10.75 15.5 10.75 C15.5 9.1 15.5 7.45 15.5 5.75 C15.17 5.75 14.84 5.75 14.5 5.75 Z " fill="#FAFBFE" transform="translate(396.5,358.25)"/>
<path d="M0 0 C0.33 0 0.66 0 1 0 C1.80315095 11.55948849 2.13811053 23.04352742 2.09765625 34.62890625 C2.09578401 36.24128678 2.09436394 37.85366789 2.09336853 39.46604919 C2.08960666 43.64649106 2.07983302 47.82689646 2.06866455 52.00732422 C2.05831178 56.29849759 2.05384165 60.58967703 2.04882812 64.88085938 C2.03820294 73.25392272 2.02120586 81.62695678 2 90 C0.515 90.495 0.515 90.495 -1 91 C-1.02325651 80.75927813 -1.04098257 70.51856262 -1.05181217 60.27781963 C-1.05701203 55.5217107 -1.06405657 50.76561995 -1.07543945 46.00952148 C-1.08637191 41.41241593 -1.09229862 36.81532778 -1.09487724 32.21821022 C-1.09671293 30.47170552 -1.10029727 28.72520167 -1.10573006 26.97870445 C-1.13272847 17.93275298 -1.10479826 8.99599074 0 0 Z " fill="#FBFEFF" transform="translate(250,139)"/>
<path d="M0 0 C0.66 0.33 1.32 0.66 2 1 C2.3911938 3.06265822 2.50674519 5.09443267 2.65625 7.1875 C2.7696875 7.785625 2.883125 8.38375 3 9 C3.66 9.33 4.32 9.66 5 10 C5.33 7.03 5.66 4.06 6 1 C6.99 1 7.98 1 9 1 C9.33 2.65 9.66 4.3 10 6 C10 4.35 10 2.7 10 1 C13.8148779 -0.27162597 15.3931275 0.35338429 19 2 C19.875 4.125 19.875 4.125 20 6 C20.33 4.35 20.66 2.7 21 1 C21.5775 1.185625 22.155 1.37125 22.75 1.5625 C25.23144049 2.04500232 26.60988556 1.71703433 29 1 C29.66 1 30.32 1 31 1 C31 4.63 31 8.26 31 12 C30.030625 11.814375 29.06125 11.62875 28.0625 11.4375 C27.051875 11.293125 26.04125 11.14875 25 11 C24.67 11.33 24.34 11.66 24 12 C22.47480724 11.91062197 20.95318071 11.75462854 19.4375 11.5625 C18.61121094 11.46066406 17.78492188 11.35882813 16.93359375 11.25390625 C16.29550781 11.17011719 15.65742188 11.08632813 15 11 C15 10.01 15 9.02 15 8 C14.34 8 13.68 8 13 8 C13 8.99 13 9.98 13 11 C10 12 10 12 7 12 C5.205625 12.0309375 5.205625 12.0309375 3.375 12.0625 C0 12 0 12 -1 11 C-1.09823937 9.33570949 -1.12973631 7.66718069 -1.125 6 C-1.12757812 5.0925 -1.13015625 4.185 -1.1328125 3.25 C-1 1 -1 1 0 0 Z M13 2 C13 3.32 13 4.64 13 6 C14.32 6 15.64 6 17 6 C16.67 4.68 16.34 3.36 16 2 C15.01 2 14.02 2 13 2 Z M26 3 C26.33 3.99 26.66 4.98 27 6 C27.33 5.01 27.66 4.02 28 3 C27.34 3 26.68 3 26 3 Z " fill="#F0F3F9" transform="translate(126,358)"/>
<path d="M0 0 C0.66 0.33 1.32 0.66 2 1 C2.21446412 56.05892219 2.21446412 56.05892219 1 83 C0.34 83 -0.32 83 -1 83 C-1.02312328 72.32580302 -1.04091501 61.65161194 -1.05181217 50.97739506 C-1.05704103 46.02146078 -1.06413874 41.06554358 -1.07543945 36.10961914 C-1.08626822 31.33101164 -1.09227681 26.55242062 -1.09487724 21.7738018 C-1.09673151 19.94646381 -1.10035216 18.11912676 -1.10573006 16.29179573 C-1.11294036 13.74146671 -1.11399095 11.19120663 -1.11352539 8.64086914 C-1.11712067 7.87770386 -1.12071594 7.11453857 -1.12442017 6.32824707 C-1.11405216 1.11405216 -1.11405216 1.11405216 0 0 Z " fill="#EBEDFC" transform="translate(250,263)"/>
<path d="M0 0 C-0.33 2.31 -0.66 4.62 -1 7 C-2.98 7.66 -4.96 8.32 -7 9 C-5.02 9 -3.04 9 -1 9 C-0.505 9.99 -0.505 9.99 0 11 C-2.97 10.67 -5.94 10.34 -9 10 C-9.33 7.36 -9.66 4.72 -10 2 C-10.66 2.66 -11.32 3.32 -12 4 C-11.6814823 6.10820797 -11.6814823 6.10820797 -11 8 C-12.32 8 -13.64 8 -15 8 C-15 7.34 -15 6.68 -15 6 C-15.66 6 -16.32 6 -17 6 C-17.33 7.65 -17.66 9.3 -18 11 C-21.13599662 12.00799891 -22.8669145 11.89516729 -26 11 C-28.33094534 10.6503582 -30.66404762 10.31445513 -33 10 C-32.67 6.7 -32.34 3.4 -32 0 C-31.34 0 -30.68 0 -30 0 C-30 2.97 -30 5.94 -30 9 C-28.02 9 -26.04 9 -24 9 C-23.67 6.03 -23.34 3.06 -23 0 C-19.54210946 -0.19635974 -16.08367803 -0.38058252 -12.625 -0.5625 C-11.64015625 -0.61857422 -10.6553125 -0.67464844 -9.640625 -0.73242188 C-8.69960938 -0.78076172 -7.75859375 -0.82910156 -6.7890625 -0.87890625 C-5.48509521 -0.94960327 -5.48509521 -0.94960327 -4.15478516 -1.02172852 C-2 -1 -2 -1 0 0 Z M-7 1 C-6.67 1.99 -6.34 2.98 -6 4 C-6 3.34 -6 2.68 -6 2 C-4.68 1.67 -3.36 1.34 -2 1 C-3.65 1 -5.3 1 -7 1 Z " fill="#F8FAFE" transform="translate(385,359)"/>
<path d="M0 0 C2.84614024 2.84614024 2.45579076 5.80369142 2.625 9.625 C2.66367187 10.33140625 2.70234375 11.0378125 2.7421875 11.765625 C2.83647724 13.50998524 2.91932891 15.25495691 3 17 C1.35 17.66 -0.3 18.32 -2 19 C-2.33 18.67 -2.66 18.34 -3 18 C-4.68183948 17.76712992 -6.3712416 17.58735834 -8.0625 17.4375 C-9.691875 17.293125 -11.32125 17.14875 -13 17 C-13 12.38 -13 7.76 -13 3 C-12.01 2.67 -11.02 2.34 -10 2 C-8.68 3.98 -7.36 5.96 -6 8 C-4.35 7.34 -2.7 6.68 -1 6 C-1.020625 5.195625 -1.04125 4.39125 -1.0625 3.5625 C-1 1 -1 1 0 0 Z M-11 8 C-10 11 -10 11 -10 11 Z " fill="#F8FAFE" transform="translate(397,236)"/>
<path d="M0 0 C1.32 0 2.64 0 4 0 C4.2475 0.5775 4.495 1.155 4.75 1.75 C5.93990475 4.13449889 5.93990475 4.13449889 8.125 6.125 C10 8 10 8 10 10 C10.66 10 11.32 10 12 10 C11.67 8.68 11.34 7.36 11 6 C14.37503669 7.1858237 16.64722731 8.27573689 19 11 C18.34 11.66 17.68 12.32 17 13 C18.98 12.67 20.96 12.34 23 12 C22.67 13.32 22.34 14.64 22 16 C16.4996262 17.37509345 13.78433245 16.85604701 8.89453125 14.0078125 C6.93944971 12.96778974 5.16022395 12.45024623 3 12 C3 12.66 3 13.32 3 14 C2.34 14 1.68 14 1 14 C1 12.68 1 11.36 1 10 C0.34 10 -0.32 10 -1 10 C-1.33 9.34 -1.66 8.68 -2 8 C-2.99 7.67 -3.98 7.34 -5 7 C-4.34 6.01 -3.68 5.02 -3 4 C-2.34 4 -1.68 4 -1 4 C-0.67 2.68 -0.34 1.36 0 0 Z " fill="#9AA293" transform="translate(115,239)"/>
<path d="M0 0 C0.66 0 1.32 0 2 0 C2.33 2.97 2.66 5.94 3 9 C3.33 6.03 3.66 3.06 4 0 C8 1 8 1 10 4 C10.66 2.68 11.32 1.36 12 0 C12.66 0 13.32 0 14 0 C14.33 0.99 14.66 1.98 15 3 C15.5259375 2.2575 15.5259375 2.2575 16.0625 1.5 C18.94374289 -0.73063966 21.47009026 -0.19980621 25 0 C25 0.66 25 1.32 25 2 C22.69 2 20.38 2 18 2 C18 3.98 18 5.96 18 8 C19.32 8 20.64 8 22 8 C22.33 7.01 22.66 6.02 23 5 C23.66 5 24.32 5 25 5 C25 6.65 25 8.3 25 10 C21.51453502 10.87136625 19.42947121 10.8573678 16 10 C14.32457024 10.28604898 12.65614657 10.61781233 11 11 C10.01 11 9.02 11 8 11 C7.01 11.495 7.01 11.495 6 12 C3.6505947 11.39239518 1.31470912 10.72870472 -1 10 C-1.02689216 8.52093108 -1.04634621 7.04172517 -1.0625 5.5625 C-1.07410156 4.73878906 -1.08570313 3.91507812 -1.09765625 3.06640625 C-1 1 -1 1 0 0 Z M7 5 C6.67 6.32 6.34 7.64 6 9 C6.99 9.495 6.99 9.495 8 10 C8 8.35 8 6.7 8 5 C7.67 5 7.34 5 7 5 Z " fill="#F8FAFE" transform="translate(321,359)"/>
<path d="M0 0 C1.8871875 0.11794922 1.8871875 0.11794922 3.8125 0.23828125 C7 0.6875 7 0.6875 9 2.6875 C6.81081081 8.28209459 6.81081081 8.28209459 3.25 10.0625 C-0.28914263 10.74310435 -3.40535893 10.96401085 -7 10.6875 C-9 8.6875 -9 8.6875 -9.1953125 6.7421875 C-9.13020833 4.72395833 -9.06510417 2.70572917 -9 0.6875 C-5.97949889 -0.82275056 -3.33976484 -0.22926664 0 0 Z " fill="#080A0C" transform="translate(112,228.3125)"/>
<path d="M0 0 C3.3 0 6.6 0 10 0 C10 0.33 10 0.66 10 1 C7.69 1 5.38 1 3 1 C3 1.66 3 2.32 3 3 C3.99 2.67 4.98 2.34 6 2 C6 2.66 6 3.32 6 4 C6.66 4 7.32 4 8 4 C8 4.66 8 5.32 8 6 C7.34 6 6.68 6 6 6 C6 6.66 6 7.32 6 8 C8.475 8.99 8.475 8.99 11 10 C11 6.7 11 3.4 11 0 C11.99 0 12.98 0 14 0 C15.6875 2 15.6875 2 17 4 C17.33 2.68 17.66 1.36 18 0 C18.66 0 19.32 0 20 0 C21.20272819 2.40545638 21.10071472 3.94996953 21.0625 6.625 C21.05347656 7.44226563 21.04445313 8.25953125 21.03515625 9.1015625 C21.02355469 9.72804688 21.01195312 10.35453125 21 11 C20.01 11 19.02 11 18 11 C17.67 10.34 17.34 9.68 17 9 C16.4328125 9.32484375 15.865625 9.6496875 15.28125 9.984375 C12.81289826 11.08329872 11.18396781 11.26838334 8.5 11.25 C7.7471875 11.25515625 6.994375 11.2603125 6.21875 11.265625 C4 11 4 11 0 9 C0 6.03 0 3.06 0 0 Z M13 4 C13 4.66 13 5.32 13 6 C13.66 5.67 14.32 5.34 15 5 C14.34 4.67 13.68 4.34 13 4 Z " fill="#F8FAFE" transform="translate(287,359)"/>
<path d="M0 0 C4.25272285 1.06318071 5.13013017 1.93880551 8 5 C8.66 5.33 9.32 5.66 10 6 C10 4.35 10 2.7 10 1 C10.99 1 11.98 1 13 1 C13 5.62 13 10.24 13 15 C9.625 14.6875 9.625 14.6875 6 14 C5.34 13.01 4.68 12.02 4 11 C3.896875 11.639375 3.79375 12.27875 3.6875 12.9375 C3.460625 13.618125 3.23375 14.29875 3 15 C2.01 15.33 1.02 15.66 0 16 C0 10.72 0 5.44 0 0 Z M9 8 C10 10 10 10 10 10 Z " fill="#FAFCFE" transform="translate(277,238)"/>
<path d="M0 0 C4 2 4 2 6 4 C6.66 3.67 7.32 3.34 8 3 C8.66 3.33 9.32 3.66 10 4 C10 2.68 10 1.36 10 0 C10.99 0.33 11.98 0.66 13 1 C13.05410687 2.77049689 13.09284119 4.54146849 13.125 6.3125 C13.14820313 7.29863281 13.17140625 8.28476563 13.1953125 9.30078125 C13 12 13 12 11 15 C7.75728494 14.4409112 6.06942576 13.5867822 4 11 C4 10.34 4 9.68 4 9 C3.34 9 2.68 9 2 9 C2 10.65 2 12.3 2 14 C1.34 14 0.68 14 0 14 C0 9.38 0 4.76 0 0 Z M3 6 C3 6.66 3 7.32 3 8 C3.66 7.67 4.32 7.34 5 7 C4.34 6.67 3.68 6.34 3 6 Z " fill="#F5F7FB" transform="translate(168,239)"/>
<path d="M0 0 C3.05164319 6.22535211 3.05164319 6.22535211 2.8125 9.8125 C2 12 2 12 0 14 C-2.61705514 15.12159506 -5.15619497 15.8029046 -8 16 C-11.39731316 13.99645634 -11.90315119 12.31333439 -13.0625 8.5625 C-13 5 -13 5 -11.0625 2.0625 C-6.98327799 -0.68473115 -4.82822592 -0.40917169 0 0 Z M-9 3 C-9.83557723 5.93008319 -9.83557723 5.93008319 -10 9 C-7.4345406 11.5654594 -5.52313332 11.54046087 -2 12 C0.36692966 9.15173402 0.36692966 9.15173402 -0.375 5.8125 C-0.58125 4.884375 -0.7875 3.95625 -1 3 C-5.10223585 1.98459888 -5.10223585 1.98459888 -9 3 Z " fill="#F7FAFE" transform="translate(373,239)"/>
<path d="M0 0 C3.21108196 0.04028239 5.50841233 0.25855688 8.1875 2.1875 C9.71241998 5.23733996 9.42312548 7.8298369 9.1875 11.1875 C8.02734375 12.8984375 8.02734375 12.8984375 6.1875 14.1875 C3.48828125 14.48046875 3.48828125 14.48046875 0.5 14.375 C-0.49386719 14.34792969 -1.48773438 14.32085937 -2.51171875 14.29296875 C-3.27097656 14.25816406 -4.03023438 14.22335938 -4.8125 14.1875 C-4.83935938 12.04173363 -4.85883088 9.89587355 -4.875 7.75 C-4.88660156 6.55503906 -4.89820313 5.36007813 -4.91015625 4.12890625 C-4.7638162 -0.27885595 -4.57409547 0.22495551 0 0 Z M-1.8125 2.1875 C-1.8125 5.4875 -1.8125 8.7875 -1.8125 12.1875 C2.32843698 12.39720559 2.32843698 12.39720559 6.1875 11.1875 C6.43765873 7.77107241 6.43765873 7.77107241 6.1875 4.1875 C3.09504997 1.72524984 3.09504997 1.72524984 -1.8125 2.1875 Z " fill="#F7FAFE" transform="translate(303.8125,238.8125)"/>
<path d="M0 0 C0.88751953 0.19529297 0.88751953 0.19529297 1.79296875 0.39453125 C3.02612259 3.88846713 3.93102383 6.50703431 3.35546875 10.20703125 C1.79296875 12.39453125 1.79296875 12.39453125 -1.51953125 13.83203125 C-5.37243477 14.4197623 -6.87957194 14.29593657 -10.20703125 12.39453125 C-12.20703125 10.39453125 -12.20703125 10.39453125 -12.64453125 7.58203125 C-12.20703125 4.39453125 -12.20703125 4.39453125 -10.26953125 1.45703125 C-6.4018251 -1.14775044 -4.44463446 -0.77581711 0 0 Z M-8.45703125 3.39453125 C-9.03453125 4.05453125 -9.61203125 4.71453125 -10.20703125 5.39453125 C-9.65994398 7.9319744 -9.65994398 7.9319744 -8.20703125 10.39453125 C-4.12643388 11.60109749 -4.12643388 11.60109749 -0.20703125 10.39453125 C-0.04025843 6.97797101 -0.04025843 6.97797101 -0.20703125 3.39453125 C-0.86703125 2.73453125 -1.52703125 2.07453125 -2.20703125 1.39453125 C-6.21049148 0.95162202 -6.21049148 0.95162202 -8.45703125 3.39453125 Z " fill="#F7F9FE" transform="translate(350.20703125,239.60546875)"/>
<path d="M0 0 C0 5.28 0 10.56 0 16 C-0.99 16 -1.98 16 -3 16 C-3 13.69 -3 11.38 -3 9 C-3.78375 9.185625 -4.5675 9.37125 -5.375 9.5625 C-8 10 -8 10 -10 9 C-10 10.98 -10 12.96 -10 15 C-10.99 15 -11.98 15 -13 15 C-13 10.71 -13 6.42 -13 2 C-12.01 1.67 -11.02 1.34 -10 1 C-10 2.98 -10 4.96 -10 7 C-7.69 7 -5.38 7 -3 7 C-3 5.02 -3 3.04 -3 1 C-1 0 -1 0 0 0 Z " fill="#F7F9FE" transform="translate(248,238)"/>
<path d="M0 0 C2.9375 2.125 2.9375 2.125 5 5 C5 8.24291156 4.58703627 10.10399726 2.8125 12.8125 C0.13779432 14.56489338 -1.80553105 14.93611062 -5 15 C-8.37545234 12.89971854 -9.73400961 11.79797116 -11 8 C-8.59483182 1.35715456 -7.28981919 -0.85762579 0 0 Z M-6.75 3.1875 C-8.4200394 5.60905713 -8.36962413 7.11693182 -8 10 C-6.11499729 12.31563087 -6.11499729 12.31563087 -3 12.25 C0.11499729 12.31563087 0.11499729 12.31563087 2 10 C2.41666667 7 2.41666667 7 2 4 C-1.20122823 1.86584784 -3.32288984 0.86196096 -6.75 3.1875 Z " fill="#F6F8FE" transform="translate(199,239)"/>
<path d="M0 0 C3 1 3 1 4.60546875 3.94140625 C5.12753906 5.13636719 5.64960938 6.33132812 6.1875 7.5625 C6.71730469 8.76003906 7.24710937 9.95757812 7.79296875 11.19140625 C8.19128906 12.11824219 8.58960938 13.04507813 9 14 C8.01 14.33 7.02 14.66 6 15 C5.67 14.34 5.34 13.68 5 13 C2.67843403 12.59270772 0.3431213 12.25561323 -2 12 C-2.33 13.32 -2.66 14.64 -3 16 C-3.99 15.34 -4.98 14.68 -6 14 C-5.65066406 13.24074219 -5.30132812 12.48148438 -4.94140625 11.69921875 C-4.25884766 10.20841797 -4.25884766 10.20841797 -3.5625 8.6875 C-3.11003906 7.70136719 -2.65757812 6.71523437 -2.19140625 5.69921875 C-0.94268008 2.98434301 -0.94268008 2.98434301 0 0 Z M1 5 C2 7 2 7 2 7 Z M3 8 C2.01 8.66 1.02 9.32 0 10 C1.32 10 2.64 10 4 10 C3.67 9.34 3.34 8.68 3 8 Z " fill="#F8FAFE" transform="translate(261,238)"/>
<path d="M0 0 C3 1 3 1 4.16796875 3.28515625 C4.50441406 4.20167969 4.84085937 5.11820313 5.1875 6.0625 C5.53167969 6.98160156 5.87585938 7.90070313 6.23046875 8.84765625 C6.48441406 9.55792969 6.73835938 10.26820313 7 11 C8.65 8.36 10.3 5.72 12 3 C12.98215891 6.92863564 13.10876269 7.47211871 12 11 C11.649375 12.2375 11.29875 13.475 10.9375 14.75 C10.628125 15.8225 10.31875 16.895 10 18 C9.34 18 8.68 18 8 18 C8 17.34 8 16.68 8 16 C7.01 15.67 6.02 15.34 5 15 C2.68021573 12.41254831 1.69277965 10.36492975 1 7 C0.34490497 4.99617991 -0.31974363 2.99541868 -1 1 C-0.67 0.67 -0.34 0.34 0 0 Z " fill="#F0F2F9" transform="translate(94,237)"/>
<path d="M0 0 C0.66 0 1.32 0 2 0 C3.32229189 2.64458379 3.09677194 4.67761301 3.0625 7.625 C3.05347656 8.62789062 3.04445312 9.63078125 3.03515625 10.6640625 C3.02355469 11.43492187 3.01195312 12.20578125 3 13 C1.68 13.33 0.36 13.66 -1 14 C-0.67 12.02 -0.34 10.04 0 8 C-0.66 8 -1.32 8 -2 8 C-2.28875 8.61875 -2.5775 9.2375 -2.875 9.875 C-4 12 -4 12 -6 14 C-6 12.02 -6 10.04 -6 8 C-6.66 8 -7.32 8 -8 8 C-8 7.34 -8 6.68 -8 6 C-7.34 6 -6.68 6 -6 6 C-6 4.35 -6 2.7 -6 1 C-4.02 2.65 -2.04 4.3 0 6 C0 4.02 0 2.04 0 0 Z " fill="#EFF4F4" transform="translate(156,239)"/>
<path d="M0 0 C3.16115776 1.36983503 3.9927092 1.9890638 6 5 C6.33 3.35 6.66 1.7 7 0 C7.99 0.33 8.98 0.66 10 1 C10 3.97 10 6.94 10 10 C7.69 9.67 5.38 9.34 3 9 C3 7.68 3 6.36 3 5 C2.67 6.98 2.34 8.96 2 11 C1.01 11 0.02 11 -1 11 C-1.02688151 9.35425434 -1.04634123 7.70838587 -1.0625 6.0625 C-1.07410156 5.14597656 -1.08570313 4.22945313 -1.09765625 3.28515625 C-1 1 -1 1 0 0 Z " fill="#F2F6FB" transform="translate(190,359)"/>
<path d="M0 0 C0.99 0 1.98 0 3 0 C4.6875 2 4.6875 2 6 4 C6.66 2.68 7.32 1.36 8 0 C10 2 10 2 10.046875 3.91015625 C9.89992188 4.97556641 9.89992188 4.97556641 9.75 6.0625 C9.61851562 7.13177734 9.61851562 7.13177734 9.484375 8.22265625 C9.24460937 9.10244141 9.24460937 9.10244141 9 10 C8.01 10.495 8.01 10.495 7 11 C6.67 10.34 6.34 9.68 6 9 C5.38125 9.350625 4.7625 9.70125 4.125 10.0625 C3.42375 10.371875 2.7225 10.68125 2 11 C1.34 10.67 0.68 10.34 0 10 C0 6.7 0 3.4 0 0 Z " fill="#FAFBFE" transform="translate(264,359)"/>
<path d="M0 0 C0.99 0.33 1.98 0.66 3 1 C3 1.99 3 2.98 3 4 C4.98491642 3.73323796 4.98491642 3.73323796 7 3 C7.33 2.01 7.66 1.02 8 0 C8.66 0 9.32 0 10 0 C10 3.63 10 7.26 10 11 C9.01 11 8.02 11 7 11 C7 10.01 7 9.02 7 8 C6.01 8 5.02 8 4 8 C3.67 8.99 3.34 9.98 3 11 C2.01 11 1.02 11 0 11 C0 7.37 0 3.74 0 0 Z " fill="#EFF1FC" transform="translate(173,359)"/>
<path d="M0 0 C0 0.66 0 1.32 0 2 C-0.99 2 -1.98 2 -3 2 C-3 2.99 -3 3.98 -3 5 C-2.34 5 -1.68 5 -1 5 C-0.67 5.99 -0.34 6.98 0 8 C-0.99 9.485 -0.99 9.485 -2 11 C-5.625 11.1875 -5.625 11.1875 -9 11 C-9 7.37 -9 3.74 -9 0 C-5.52176885 -1.15941038 -3.54104422 -0.70820884 0 0 Z M-8 7 C-7.34 7.66 -6.68 8.32 -6 9 C-5.01 9 -4.02 9 -3 9 C-3 8.34 -3 7.68 -3 7 C-4.65 7 -6.3 7 -8 7 Z " fill="#F7F8FE" transform="translate(172,359)"/>
<path d="M0 0 C0.99 0.33 1.98 0.66 3 1 C3 3.31 3 5.62 3 8 C5.97 8.495 5.97 8.495 9 9 C9 6.03 9 3.06 9 0 C9.99 0 10.98 0 12 0 C12 3.63 12 7.26 12 11 C8.04 11 4.08 11 0 11 C0 7.37 0 3.74 0 0 Z " fill="#F8FBFE" transform="translate(217,359)"/>
<path d="M0 0 C0.66 0.33 1.32 0.66 2 1 C0.515 3.475 0.515 3.475 -1 6 C1.64 6.66 4.28 7.32 7 8 C7.33 10.31 7.66 12.62 8 15 C7.34 14.67 6.68 14.34 6 14 C3.99199544 14.28112064 1.98985949 14.61067967 0 15 C0.66 13.68 1.32 12.36 2 11 C0.02 9.68 -1.96 8.36 -4 7 C-3.6875 4.625 -3.6875 4.625 -3 2 C-2.01 1.34 -1.02 0.68 0 0 Z " fill="#E8EDEC" transform="translate(131,238)"/>
<path d="M0 0 C2.97 0 5.94 0 9 0 C9 2.31 9 4.62 9 7 C7.34385343 7.38218767 5.67542976 7.71395102 4 8 C3.67 7.67 3.34 7.34 3 7 C2.67 7.66 2.34 8.32 2 9 C2.94875 8.95875 3.8975 8.9175 4.875 8.875 C8 9 8 9 10 11 C3.375 11.125 3.375 11.125 0 10 C0 6.7 0 3.4 0 0 Z M3 1 C2.67 1.66 2.34 2.32 2 3 C3.98 2.67 5.96 2.34 8 2 C8 1.67 8 1.34 8 1 C6.35 1 4.7 1 3 1 Z " fill="#F6FAFD" transform="translate(254,359)"/>
<path d="M0 0 C0.66 0 1.32 0 2 0 C2 1.32 2 2.64 2 4 C3.65 4 5.3 4 7 4 C7.33 2.68 7.66 1.36 8 0 C10 2 10 2 10.3125 4.9375 C10 8 10 8 8.5 9.875 C8.005 10.24625 7.51 10.6175 7 11 C7 9.35 7 7.7 7 6 C5.35 6 3.7 6 2 6 C2.33 7.65 2.66 9.3 3 11 C2.01 10.67 1.02 10.34 0 10 C-0.19412181 8.52168779 -0.38012131 7.04230684 -0.5625 5.5625 C-0.66691406 4.73878906 -0.77132813 3.91507812 -0.87890625 3.06640625 C-0.91886719 2.38449219 -0.95882813 1.70257813 -1 1 C-0.67 0.67 -0.34 0.34 0 0 Z " fill="#F7F8FE" transform="translate(276,359)"/>
<path d="M0 0 C-2 2 -2 2 -4.625 2.125 C-5.40875 2.08375 -6.1925 2.0425 -7 2 C-7 3.65 -7 5.3 -7 7 C-5.68 7 -4.36 7 -3 7 C-2.67 6.01 -2.34 5.02 -2 4 C-1.34 4 -0.68 4 0 4 C-0.33 5.98 -0.66 7.96 -1 10 C-3.97 9.67 -6.94 9.34 -10 9 C-10.25 2.375 -10.25 2.375 -8 -1 C-4.37673261 -2.2077558 -3.35853631 -1.54311128 0 0 Z " fill="#F3F5FE" transform="translate(211,360)"/>
<path d="M0 0 C0.99 0 1.98 0 3 0 C3.66 3.63 4.32 7.26 5 11 C6.65 11.33 8.3 11.66 10 12 C10 12.66 10 13.32 10 14 C2.25 15.125 2.25 15.125 0 14 C0 9.38 0 4.76 0 0 Z " fill="#F9FAFF" transform="translate(321,239)"/>
<path d="M0 0 C0.721875 0.391875 1.44375 0.78375 2.1875 1.1875 C1.8575 1.8475 1.5275 2.5075 1.1875 3.1875 C0.5275 3.1875 -0.1325 3.1875 -0.8125 3.1875 C-1.1425 2.8575 -1.4725 2.5275 -1.8125 2.1875 C-2.8025 2.8475 -3.7925 3.5075 -4.8125 4.1875 C-4.8125 5.5075 -4.8125 6.8275 -4.8125 8.1875 C-1.3475 7.6925 -1.3475 7.6925 2.1875 7.1875 C2.1875 8.5075 2.1875 9.8275 2.1875 11.1875 C-5.5625 11.3125 -5.5625 11.3125 -7.8125 10.1875 C-8.24347643 4.92958754 -8.24347643 4.92958754 -7.8125 2.1875 C-4.97707746 -0.56691046 -3.82910965 -1.10618723 0 0 Z " fill="#F9FBFF" transform="translate(316.8125,358.8125)"/>
<path d="M0 0 C3.37503669 1.1858237 5.64722731 2.27573689 8 5 C7.34 5.66 6.68 6.32 6 7 C7.98 6.67 9.96 6.34 12 6 C11.67 7.32 11.34 8.64 11 10 C4.25 11.125 4.25 11.125 2 10 C0.31722959 6.44748469 0 3.89432805 0 0 Z " fill="#CDD3CE" transform="translate(126,245)"/>
<path d="M0 0 C-0.350625 0.763125 -0.70125 1.52625 -1.0625 2.3125 C-2.32360884 5.04759379 -2.32360884 5.04759379 -1 8 C-2.65 8 -4.3 8 -6 8 C-6.33 8.99 -6.66 9.98 -7 11 C-7.66 11 -8.32 11 -9 11 C-9.33 7.7 -9.66 4.4 -10 1 C-6.78548731 -0.60725635 -3.56387464 -0.05748185 0 0 Z " fill="#F5F7FE" transform="translate(240,358)"/>
<path d="M0 0 C2.64 0 5.28 0 8 0 C8 0.33 8 0.66 8 1 C6.02 1 4.04 1 2 1 C2 1.66 2 2.32 2 3 C2.99 2.67 3.98 2.34 5 2 C5.66 2.33 6.32 2.66 7 3 C6.67 4.32 6.34 5.64 6 7 C5.01 7 4.02 7 3 7 C2.67 7.66 2.34 8.32 2 9 C2.94875 8.95875 3.8975 8.9175 4.875 8.875 C8 9 8 9 10 11 C3.375 11.125 3.375 11.125 0 10 C0 6.7 0 3.4 0 0 Z " fill="#F4F8FC" transform="translate(240,359)"/>
<path d="M0 0 C1.32 0.33 2.64 0.66 4 1 C3.34 2.65 2.68 4.3 2 6 C2.33 6 2.66 6 3 6 C3 7.65 3 9.3 3 11 C0.03 10.67 -2.94 10.34 -6 10 C-6.33 8.35 -6.66 6.7 -7 5 C-6.01 5 -5.02 5 -4 5 C-3.67 3.68 -3.34 2.36 -3 1 C-2.34 1.33 -1.68 1.66 -1 2 C-1.185625 2.969375 -1.37125 3.93875 -1.5625 4.9375 C-1.706875 5.948125 -1.85125 6.95875 -2 8 C-1.67 8.33 -1.34 8.66 -1 9 C-0.67 6.03 -0.34 3.06 0 0 Z " fill="#F7FAFD" transform="translate(147,359)"/>
<path d="M0 0 C2.31 0 4.62 0 7 0 C7 0.33 7 0.66 7 1 C5.35 1 3.7 1 2 1 C3.9254644 3.2236068 3.9254644 3.2236068 7 4 C7.6875 6.0625 7.6875 6.0625 8 8 C2.25 10 2.25 10 0 10 C-1.2380014 6.42355152 -0.74926071 3.66305234 0 0 Z " fill="#F3F7FA" transform="translate(116,359)"/>
<path d="M0 0 C4.455 0.99 4.455 0.99 9 2 C8.34 3.98 7.68 5.96 7 8 C7.66 8 8.32 8 9 8 C9 9.65 9 11.3 9 13 C8.34 13 7.68 13 7 13 C6.67 11.02 6.34 9.04 6 7 C3.69 6.34 1.38 5.68 -1 5 C-0.67 3.35 -0.34 1.7 0 0 Z " fill="#C6D8CD" transform="translate(132,239)"/>
<path d="M0 0 C1.32 0 2.64 0 4 0 C4.33 2.97 4.66 5.94 5 9 C3.35 9.33 1.7 9.66 0 10 C0 8.68 0 7.36 0 6 C-0.66 6 -1.32 6 -2 6 C-1.49396008 3.83125748 -1.00016187 2.00032373 0 0 Z " fill="#D9EEDB" transform="translate(141,241)"/>
<path d="M0 0 C0.99 0 1.98 0 3 0 C3 4.62 3 9.24 3 14 C2.01 14 1.02 14 0 14 C0 9.38 0 4.76 0 0 Z " fill="#F9FDFF" transform="translate(212,239)"/>
<path d="M0 0 C0.66 0 1.32 0 2 0 C2 4.29 2 8.58 2 13 C1.34 13 0.68 13 0 13 C0 11.68 0 10.36 0 9 C-0.66 9 -1.32 9 -2 9 C-1.67 7.68 -1.34 6.36 -1 5 C-1.66 4.67 -2.32 4.34 -3 4 C-2.34 3.67 -1.68 3.34 -1 3 C-0.67 2.01 -0.34 1.02 0 0 Z " fill="#C8CBC4" transform="translate(116,240)"/>
<path d="M0 0 C0.33 0 0.66 0 1 0 C0.875 3.3125 0.875 3.3125 0 7 C-3.97123777 9.86298537 -7.17630663 10.34454953 -12 10 C-12 9.34 -12 8.68 -12 8 C-11.30132812 7.84144531 -10.60265625 7.68289062 -9.8828125 7.51953125 C-4.17712948 6.31216721 -4.17712948 6.31216721 -0.375 2.3125 C-0.25125 1.549375 -0.1275 0.78625 0 0 Z " fill="#515549" transform="translate(120,231)"/>
<path d="M0 0 C0.99 0.33 1.98 0.66 3 1 C3.95024979 4.69541586 3.95024979 7.30458414 3 11 C2.01 11 1.02 11 0 11 C0 7.37 0 3.74 0 0 Z " fill="#F8F9FC" transform="translate(173,359)"/>
<path d="M0 0 C0.99 0.33 1.98 0.66 3 1 C3 4.3 3 7.6 3 11 C1.68 10.67 0.36 10.34 -1 10 C-0.67 6.7 -0.34 3.4 0 0 Z " fill="#F8FAFC" transform="translate(159,359)"/>
<path d="M0 0 C4.38889325 0.66498383 7.9811485 2.18757677 12 4 C11.67 5.32 11.34 6.64 11 8 C11 7.34 11 6.68 11 6 C10.28972656 5.81824219 9.57945313 5.63648438 8.84765625 5.44921875 C7.92855469 5.19785156 7.00945312 4.94648438 6.0625 4.6875 C5.14597656 4.44386719 4.22945313 4.20023438 3.28515625 3.94921875 C2.53105469 3.63597656 1.77695313 3.32273438 1 3 C0.67 2.01 0.34 1.02 0 0 Z " fill="#474E47" transform="translate(118,251)"/>
<path d="M0 0 C1.00361368 3.12235367 0.97763219 4.88935211 0 8 C-0.350625 9.2375 -0.70125 10.475 -1.0625 11.75 C-1.5265625 13.35875 -1.5265625 13.35875 -2 15 C-2.66 15 -3.32 15 -4 15 C-3.814375 14.05125 -3.62875 13.1025 -3.4375 12.125 C-2.71313368 9.10131207 -2.71313368 9.10131207 -4 7 C-3.22265625 5.2734375 -3.22265625 5.2734375 -2.0625 3.375 C-1.381875 2.26125 -0.70125 1.1475 0 0 Z " fill="#C5CDCA" transform="translate(106,240)"/>
<path d="M0 0 C0 0.66 0 1.32 0 2 C0.66 2.33 1.32 2.66 2 3 C2.33 4.32 2.66 5.64 3 7 C-0.3 6.01 -3.6 5.02 -7 4 C-2.25 0 -2.25 0 0 0 Z " fill="#798577" transform="translate(125,247)"/>
<path d="M0 0 C0.99 0 1.98 0 3 0 C3 3.63 3 7.26 3 11 C2.01 10.67 1.02 10.34 0 10 C0 6.7 0 3.4 0 0 Z " fill="#EEF4FA" transform="translate(226,359)"/>
<path d="M0 0 C2.97 0.99 5.94 1.98 9 3 C9 3.66 9 4.32 9 5 C5.37 4.67 1.74 4.34 -2 4 C-1.34 2.68 -0.68 1.36 0 0 Z " fill="#374030" transform="translate(107,248)"/>
<path d="M0 0 C0.99 0 1.98 0 3 0 C3 3.63 3 7.26 3 11 C2.01 10.67 1.02 10.34 0 10 C0 6.7 0 3.4 0 0 Z " fill="#EDF1F9" transform="translate(185,359)"/>
<path d="M0 0 C0.66 0.33 1.32 0.66 2 1 C0.515 3.475 0.515 3.475 -1 6 C-0.34 6.33 0.32 6.66 1 7 C0.01 7.66 -0.98 8.32 -2 9 C-2.66 8.34 -3.32 7.68 -4 7 C-3.8125 4.5 -3.8125 4.5 -3 2 C-2.01 1.34 -1.02 0.68 0 0 Z " fill="#EEF4F2" transform="translate(131,238)"/>
<path d="M0 0 C0.33 0.99 0.66 1.98 1 3 C-1.75924185 4.80411967 -2.88972103 5.0127245 -6.25 4.625 C-7.1575 4.41875 -8.065 4.2125 -9 4 C-9 3.34 -9 2.68 -9 2 C-6.03 1.34 -3.06 0.68 0 0 Z " fill="#A8ADAD" transform="translate(137,251)"/>
<path d="M0 0 C0.99 0 1.98 0 3 0 C3.33 1.32 3.66 2.64 4 4 C3.34 4 2.68 4 2 4 C2 5.98 2 7.96 2 10 C1.34 10 0.68 10 0 10 C0 6.7 0 3.4 0 0 Z " fill="#F0F6FC" transform="translate(264,359)"/>
<path d="M0 0 C0.99 0 1.98 0 3 0 C3 2.31 3 4.62 3 7 C1.68 7.33 0.36 7.66 -1 8 C-0.67 5.36 -0.34 2.72 0 0 Z " fill="#E5ECF0" transform="translate(132,359)"/>
<path d="M0 0 C0.66 0.33 1.32 0.66 2 1 C2 3.97 2 6.94 2 10 C1.01 10.33 0.02 10.66 -1 11 C-1.02688151 9.35425434 -1.04634123 7.70838587 -1.0625 6.0625 C-1.07410156 5.14597656 -1.08570313 4.22945313 -1.09765625 3.28515625 C-1 1 -1 1 0 0 Z " fill="#F6F9FE" transform="translate(250,263)"/>
<path d="M0 0 C0 0.99 0 1.98 0 3 C-2 5 -2 5 -5.625 5.125 C-6.73875 5.08375 -7.8525 5.0425 -9 5 C-6.47043472 1.9083091 -3.77545388 1.09068668 0 0 Z " fill="#F7FBFE" transform="translate(135,365)"/>
<path d="M0 0 C1.32 0.66 2.64 1.32 4 2 C3.25 3.9375 3.25 3.9375 2 6 C-0.125 6.75 -0.125 6.75 -2 7 C-1.34 4.69 -0.68 2.38 0 0 Z " fill="#8C968A" transform="translate(120,243)"/>
<path d="M0 0 C0.66 0 1.32 0 2 0 C2 1.65 2 3.3 2 5 C-2.75 6.125 -2.75 6.125 -5 5 C-5 4.34 -5 3.68 -5 3 C-3.68 3 -2.36 3 -1 3 C-0.67 2.01 -0.34 1.02 0 0 Z " fill="#F2F6FF" transform="translate(344,364)"/>
<path d="M0 0 C1.98 0.66 3.96 1.32 6 2 C5.67 2.66 5.34 3.32 5 4 C4.34 3.67 3.68 3.34 3 3 C3 3.66 3 4.32 3 5 C1.68 5 0.36 5 -1 5 C-0.67 3.35 -0.34 1.7 0 0 Z " fill="#DADCDA" transform="translate(132,239)"/>
<path d="M0 0 C2.475 0.495 2.475 0.495 5 1 C5.33 1.99 5.66 2.98 6 4 C5.01 5.485 5.01 5.485 4 7 C3.896875 6.360625 3.79375 5.72125 3.6875 5.0625 C3.460625 4.381875 3.23375 3.70125 3 3 C2.01 2.67 1.02 2.34 0 2 C0 1.34 0 0.68 0 0 Z " fill="#EFF2F8" transform="translate(166,363)"/>
<path d="M0 0 C1.61949011 2.57213134 2.04408751 3.67669159 1.625 6.75 C1.41875 7.4925 1.2125 8.235 1 9 C0.67 7.68 0.34 6.36 0 5 C-0.66 5 -1.32 5 -2 5 C-1.125 1.125 -1.125 1.125 0 0 Z " fill="#E2ECE4" transform="translate(141,242)"/>
<path d="M0 0 C1.65 0.33 3.3 0.66 5 1 C5.33 1.99 5.66 2.98 6 4 C3.69 4 1.38 4 -1 4 C-0.67 2.68 -0.34 1.36 0 0 Z " fill="#E3EDEB" transform="translate(134,237)"/>
<path d="M0 0 C1.32 0.99 2.64 1.98 4 3 C3.01 3 2.02 3 1 3 C1 3.99 1 4.98 1 6 C0.01 6.33 -0.98 6.66 -2 7 C-2.33 6.34 -2.66 5.68 -3 5 C-1.5625 2.375 -1.5625 2.375 0 0 Z " fill="#E8EAF5" transform="translate(138,363)"/>
<path d="M0 0 C1.32 0 2.64 0 4 0 C4.33 0.99 4.66 1.98 5 3 C3.35 3.66 1.7 4.32 0 5 C0 3.35 0 1.7 0 0 Z " fill="#E6F3F8" transform="translate(119,364)"/>
<path d="M0 0 C0.66 0 1.32 0 2 0 C2 1.98 2 3.96 2 6 C1.01 6 0.02 6 -1 6 C-1.042721 4.33388095 -1.04063832 2.66617115 -1 1 C-0.67 0.67 -0.34 0.34 0 0 Z " fill="#E6EAF3" transform="translate(190,364)"/>
<path d="M0 0 C2.4375 0.8125 2.4375 0.8125 5 2 C5.33 2.99 5.66 3.98 6 5 C3 5 3 5 1.3125 3.625 C0 2 0 2 0 0 Z " fill="#BFC1C1" transform="translate(126,245)"/>
<path d="M0 0 C0.33 0 0.66 0 1 0 C1 1.65 1 3.3 1 5 C1.99 4.67 2.98 4.34 4 4 C4 4.66 4 5.32 4 6 C2.68 6 1.36 6 0 6 C0 4.02 0 2.04 0 0 Z " fill="#FFFFFF" transform="translate(221,360)"/>
<path d="M0 0 C0.99 0.495 0.99 0.495 2 1 C1.67 2.98 1.34 4.96 1 7 C0.67 7 0.34 7 0 7 C0 4.69 0 2.38 0 0 Z " fill="#E9E9FF" transform="translate(129,359)"/>
<path d="M0 0 C0.66 0.33 1.32 0.66 2 1 C2 1.66 2 2.32 2 3 C0.68 2.67 -0.64 2.34 -2 2 C-1.34 1.34 -0.68 0.68 0 0 Z " fill="#F7FFFF" transform="translate(393,230)"/>
<path d="M0 0 C0.66 0 1.32 0 2 0 C2 0.66 2 1.32 2 2 C1.34 2 0.68 2 0 2 C0 1.34 0 0.68 0 0 Z " fill="#FFFFFF" transform="translate(177,359)"/>
<path d="M0 0 C0.33 0.66 0.66 1.32 1 2 C0.34 1.67 -0.32 1.34 -1 1 C-0.67 0.67 -0.34 0.34 0 0 Z " fill="#FFFFFF" transform="translate(252,358)"/>
<path d="" fill="#FFFFFF" transform="translate(0,0)"/>
<path d="" fill="#FFFFFF" transform="translate(0,0)"/>
<path d="" fill="#FFFFFF" transform="translate(0,0)"/>
<path d="M0 0 C0.66 0 1.32 0 2 0 C1.67 0.66 1.34 1.32 1 2 C0.67 1.34 0.34 0.68 0 0 Z " fill="#F5F5FF" transform="translate(250,137)"/>
<path d="" fill="#F5F5FF" transform="translate(0,0)"/>
<path d="M0 0 C2 1 2 1 2 1 Z " fill="#FFFFFF" transform="translate(341,361)"/>
<path d="" fill="#FFFFFF" transform="translate(0,0)"/>
<path d="" fill="#FFFFFF" transform="translate(0,0)"/>
<path d="M0 0 C2 1 2 1 2 1 Z " fill="#FFFFFF" transform="translate(159,261)"/>
<path d="M0 0 C2 1 2 1 2 1 Z " fill="#FFFFFF" transform="translate(168,237)"/>
<path d="M0 0 C2 1 2 1 2 1 Z " fill="#FFFFFF" transform="translate(154,232)"/>
<path d="" fill="#FFFFFF" transform="translate(0,0)"/>
<path d="" fill="#FFFFFF" transform="translate(0,0)"/>
<path d="" fill="#FFFFFF" transform="translate(0,0)"/>
<path d="" fill="#FFFFFF" transform="translate(0,0)"/>
<path d="" fill="#FFFFFF" transform="translate(0,0)"/>
<path d="" fill="#FFFFFF" transform="translate(0,0)"/>
<path d="" fill="#FFFFFF" transform="translate(0,0)"/>
<path d="" fill="#FFFFFF" transform="translate(0,0)"/>
<path d="" fill="#FFFFFF" transform="translate(0,0)"/>
<path d="" fill="#FFFFFF" transform="translate(0,0)"/>
<path d="" fill="#FFFFFF" transform="translate(0,0)"/>
<path d="" fill="#FFFFFF" transform="translate(0,0)"/>
<path d="" fill="#FFFFFF" transform="translate(0,0)"/>
<path d="" fill="#FFFFFF" transform="translate(0,0)"/>
<path d="" fill="#FFFFFF" transform="translate(0,0)"/>
<path d="" fill="#FFFFFF" transform="translate(0,0)"/>
<path d="" fill="#FFFFFF" transform="translate(0,0)"/>
<path d="" fill="#FFFFFF" transform="translate(0,0)"/>
<path d="" fill="#FFFFFF" transform="translate(0,0)"/>
<path d="" fill="#FFFFFF" transform="translate(0,0)"/>
<path d="" fill="#FFFFFF" transform="translate(0,0)"/>
<path d="" fill="#FFFFFF" transform="translate(0,0)"/>
<path d="" fill="#FFFFFF" transform="translate(0,0)"/>
<path d="" fill="#FFFFFF" transform="translate(0,0)"/>
<path d="" fill="#FFFFFF" transform="translate(0,0)"/>
<path d="" fill="#FFFFFF" transform="translate(0,0)"/>
<path d="" fill="#FFFFFF" transform="translate(0,0)"/>
<path d="" fill="#FFFFFF" transform="translate(0,0)"/>
<path d="" fill="#FFFFFF" transform="translate(0,0)"/>
<path d="" fill="#FFFFFF" transform="translate(0,0)"/>
<path d="" fill="#FFFFFF" transform="translate(0,0)"/>
<path d="" fill="#FFFFFF" transform="translate(0,0)"/>
<path d="" fill="#FFFFFF" transform="translate(0,0)"/>
<path d="" fill="#FFFFFF" transform="translate(0,0)"/>
<path d="" fill="#FFFFFF" transform="translate(0,0)"/>
<path d="" fill="#FFFFFF" transform="translate(0,0)"/>
</svg>
